<svg xmlns="http://www.w3.org/2000/svg" viewBox="0 0 200 200" fill="#d4c5a9">
  <path d="M100 30a70 70 0 1 0 0 140 70 70 0 0 0 0-140zm0 110a40 40 0 1 1 0-80 40 40 0 0 1 0 80z"/>
  <rect x="93" y="0" width="14" height="30" rx="3"/>
  <rect x="93" y="170" width="14" height="30" rx="3"/>
  <rect x="0" y="93" width="30" height="14" rx="3"/>
  <rect x="170" y="93" width="30" height="14" rx="3"/>
  <rect x="25" y="25" width="14" height="30" rx="3" transform="rotate(45 32 40)"/>
  <rect x="155" y="145" width="14" height="30" rx="3" transform="rotate(45 162 160)"/>
  <rect x="155" y="25" width="14" height="30" rx="3" transform="rotate(-45 162 40)"/>
  <rect x="25" y="145" width="14" height="30" rx="3" transform="rotate(-45 32 160)"/>
  <circle cx="100" cy="100" r="15" fill="none" stroke="#d4c5a9" stroke-width="4"/>
</svg>
